<?xml version="1.0" standalone="no"?><!DOCTYPE svg PUBLIC "-//W3C//DTD SVG 1.1//EN" "http://www.w3.org/Graphics/SVG/1.1/DTD/svg11.dtd"><svg t="1737101101753" class="icon" viewBox="0 0 1024 1024" version="1.1" xmlns="http://www.w3.org/2000/svg" p-id="11190" xmlns:xlink="http://www.w3.org/1999/xlink" width="48" height="48"><path d="M853.333333 0H170.666667C76.8 0 0 76.8 0 170.666667v682.666666c0 93.866667 76.8 170.666667 170.666667 170.666667h682.666666c93.866667 0 170.666667-76.8 170.666667-170.666667V170.666667l-170.666667-170.666667zM640 85.333333c25.6 0 42.666667 17.066667 42.666667 42.666667v256c0 25.6-17.066667 42.666667-42.666667 42.666667h-341.333333c-25.6 0-42.666667-17.066667-42.666667-42.666667v-256c0-25.6 17.066667-42.666667 42.666667-42.666667h341.333333z m298.666667 768c0 51.2-34.133333 85.333333-85.333334 85.333334H170.666667c-51.2 0-85.333333-34.133333-85.333334-85.333334V170.666667c0-51.2 34.133333-85.333333 85.333334-85.333334h8.533333c-8.533333 17.066667-8.533333 25.6-8.533333 42.666667v256C170.666667 452.266667 230.4 512 298.666667 512h341.333333C708.266667 512 768 452.266667 768 384v-256c0-17.066667 0-25.6-8.533333-42.666667h59.733333L938.666667 204.8V853.333333z" fill="#2c2c2c" p-id="11191"></path><path d="M554.666667 341.333333c25.6 0 42.666667-17.066667 42.666666-42.666666v-85.333334c0-25.6-17.066667-42.666667-42.666666-42.666666s-42.666667 17.066667-42.666667 42.666666v85.333334c0 25.6 17.066667 42.666667 42.666667 42.666666z" fill="#2c2c2c" p-id="11192"></path></svg>