<?xml version="1.0" standalone="no"?><!DOCTYPE svg PUBLIC "-//W3C//DTD SVG 1.1//EN" "http://www.w3.org/Graphics/SVG/1.1/DTD/svg11.dtd"><svg t="1737101135937" class="icon" viewBox="0 0 1437 1024" version="1.1" xmlns="http://www.w3.org/2000/svg" p-id="13351" xmlns:xlink="http://www.w3.org/1999/xlink" width="67.359375" height="48"><path d="M795.439303 623.413007l-0.150588-0.150588c-52.469179 53.845984-125.461357 87.319555-206.284113 87.319556-80.822757 0-153.814935-33.473572-206.284114-87.319556l-0.150588 0.150588L180.244101 419.495277l202.325799-203.91773 0.150588 0.150588C435.189667 161.882152 508.181845 128.40858 589.004602 128.40858c80.822757 0 153.814935 33.473572 206.284113 87.319555l0.150588-0.150588 202.325799 203.91773-202.325799 203.91773zM589.004602 244.705578c-95.795511 0-173.455919 78.26276-173.455919 174.789699s77.660408 174.789699 173.455919 174.789699c95.795511 0 173.434406-78.26276 173.434406-174.789699S684.800113 244.705578 589.004602 244.705578z m0 262.173792c-47.886999 0-86.717203-39.109867-86.717204-87.384093s38.830204-87.384093 86.717204-87.384093 86.717203 39.109867 86.717203 87.384093-38.830204 87.384093-86.717203 87.384093z" fill="#2c2c2c" p-id="13352"></path></svg>